<svg width="25" height="24" viewBox="0 0 25 24" fill="none" xmlns="http://www.w3.org/2000/svg">
<mask id="mask0_328_8" style="mask-type:alpha" maskUnits="userSpaceOnUse" x="1" y="0" width="24" height="24">
<rect x="1" width="24" height="24" fill="#D9D9D9"/>
</mask>
<g mask="url(#mask0_328_8)">
<path d="M7 19H10V13H16V19H19V10L13 5.5L7 10V19ZM7 21C6.45 21 5.97933 20.8043 5.588 20.413C5.196 20.021 5 19.55 5 19V10C5 9.68333 5.071 9.38333 5.213 9.1C5.35433 8.81667 5.55 8.58333 5.8 8.4L11.8 3.9C11.9833 3.76667 12.175 3.66667 12.375 3.6C12.575 3.53333 12.7833 3.5 13 3.5C13.2167 3.5 13.425 3.53333 13.625 3.6C13.825 3.66667 14.0167 3.76667 14.2 3.9L20.2 8.4C20.45 8.58333 20.646 8.81667 20.788 9.1C20.9293 9.38333 21 9.68333 21 10V19C21 19.55 20.8043 20.021 20.413 20.413C20.021 20.8043 19.55 21 19 21H14V15H12V21H7Z" fill="#FCFCFF"/>
</g>
</svg>
