<svg width="50" height="50" viewBox="0 0 50 50" fill="none" xmlns="http://www.w3.org/2000/svg">
<g clip-path="url(#clip0_27_544)">
<path d="M25 50C38.8071 50 50 38.8071 50 25C50 11.1929 38.8071 0 25 0C11.1929 0 0 11.1929 0 25C0 38.8071 11.1929 50 25 50Z" fill="url(#paint0_linear_27_544)"/>
<path fill-rule="evenodd" clip-rule="evenodd" d="M11.3164 24.7362C18.6044 21.5609 23.4642 19.4676 25.8959 18.4562C32.8386 15.5684 34.2813 15.0668 35.2216 15.0502C35.4284 15.0466 35.8908 15.0978 36.1903 15.3409C36.4432 15.5461 36.5128 15.8233 36.5461 16.0179C36.5794 16.2125 36.6209 16.6557 36.5879 17.0021C36.2117 20.9552 34.5837 30.5483 33.7555 34.9758C33.4051 36.8493 32.7151 37.4774 32.047 37.5389C30.5952 37.6725 29.4928 36.5794 28.0867 35.6577C25.8863 34.2154 24.6433 33.3175 22.5075 31.91C20.0392 30.2835 21.6393 29.3895 23.046 27.9285C23.4141 27.5461 29.8107 21.7279 29.9346 21.2001C29.95 21.1341 29.9644 20.888 29.8182 20.7581C29.6721 20.6281 29.4563 20.6726 29.3006 20.7079C29.0799 20.758 25.5649 23.0813 18.7555 27.6779C17.7577 28.363 16.854 28.6968 16.0443 28.6793C15.1517 28.66 13.4346 28.1746 12.1582 27.7597C10.5926 27.2507 9.34822 26.9817 9.45657 26.1174C9.51301 25.6672 10.133 25.2068 11.3164 24.7362Z" fill="white"/>
</g>
<defs>
<linearGradient id="paint0_linear_27_544" x1="3" y1="50" x2="53" y2="0" gradientUnits="userSpaceOnUse">
<stop stop-color="#503F9F"/>
<stop offset="0.286111" stop-color="#843EA1"/>
<stop offset="0.470651" stop-color="#C42A56"/>
<stop offset="0.636101" stop-color="#D1723F"/>
<stop offset="0.880208" stop-color="#D8A83C"/>
</linearGradient>
<clipPath id="clip0_27_544">
<rect width="50" height="50" fill="white"/>
</clipPath>
</defs>
</svg>
